<svg xmlns="http://www.w3.org/2000/svg" width="30" height="30" viewBox="0 0 30 30">
  <g id="Group_2064" data-name="Group 2064" transform="translate(0 30) rotate(-90)">
    <circle id="Ellipse_62" data-name="Ellipse 62" cx="15" cy="15" r="15" fill="#027aff"/>
    <g id="down-arrow-svgrepo-com_2_" data-name="down-arrow-svgrepo-com (2)" transform="translate(9.23 11.539)">
      <g id="c118_triangle" transform="translate(0 0)">
        <path id="Path_288" data-name="Path 288" d="M11.215,4.554h-.9l-4.4,5.584a.239.239,0,0,1-.369,0l-4.4-5.584h-.9a.232.232,0,0,0-.212.132.235.235,0,0,0,.026.248l5.491,6.961a.237.237,0,0,0,.369,0L11.4,4.933a.235.235,0,0,0-.185-.379Z" transform="translate(0 -4.554)" fill="#fff"/>
      </g>
    </g>
  </g>
</svg>
